<svg width="400" height="200" xmlns="http://www.w3.org/2000/svg">
 <!-- Created with Method Draw - http://github.com/duopixel/Method-Draw/ -->
 <g>
  <title>background</title>
  <rect fill="#fff" id="canvas_background" height="202" width="402" y="-1" x="-1"/>
  <g display="none" overflow="visible" y="0" x="0" height="100%" width="100%" id="canvasGrid">
   <rect fill="url(#gridpattern)" stroke-width="0" y="0" x="0" height="100%" width="100%"/>
  </g>
 </g>
 <g>
  <title>Layer 1</title>
  <path d="m40,74.5c0,0 -0.160183,2.012909 0,3c0.506542,3.121445 1.188343,5.943657 2,9c1.308754,4.9282 0.359272,8.051651 1,12c0.506542,3.121445 1.847229,9.041321 3,13c0.884132,3.036163 2.234634,5.152245 3,7c1.082394,2.613129 2.346191,3.70546 4,6c1.307453,1.813995 1.458805,2.693436 2,4c0.382683,0.923874 1,1 1,-1c0,-1 0,-5 0,-9c0,-2 1.486256,-4.823746 2,-7c0.459507,-1.946495 1.103405,-3.906326 2,-5c2.285881,-2.788322 3.190277,-4.881523 5,-8c1.122345,-1.933998 2.415894,-4.761078 4,-8c1.389351,-2.840721 2,-5 2,-7c0,-1 0,-3 0,-4c0,-1 -0.923882,-2.617317 0,-3c1.306564,-0.541199 2,2 2,5c0,2 0.224205,4.902824 1,7c1.430496,3.866997 0.310738,6.080254 1,9c1.027489,4.352501 2.2565,7.796997 3,9c1.662506,2.689995 0.540497,5.053505 1,7c0.513741,2.176254 1.493462,4.878555 2,8c0.160179,0.987091 1,2 1,4c0,1 1,2 1,3c0,1 0.076118,1.61731 1,2c1.306564,0.541199 1.486259,-3.823746 2,-6c0.459503,-1.946495 -0.307449,-3.186005 1,-5c0.826904,-1.14727 2,-2 2,-3c0,-1 -0.210152,-3.078438 1,-6c0.855705,-2.065857 1,-3 2,-5c1,-2 2.486259,-3.823746 3,-6c0.459503,-1.946495 0.540497,-3.053505 1,-5c0.513741,-2.176254 0.877815,-4.007492 1,-5c0.503777,-4.092216 1,-5 1,-6c0,-2 0,-3 0,-4c0,-1 -1,-2 -1,-3l-1,0l0,-1l0,-1" id="svg_11" stroke-width="1.5" stroke="#000" fill="none"/>
  <path d="m111,120.5c0,0 -0.525734,-1.149345 0,-2c1.175568,-1.902115 5.211678,-2.714119 8,-5c2.18734,-1.79319 4,-4 4,-5c0,-1 0,-2 0,-3c0,-1 0,-2 0,-3c0,-1 0,-2 0,-3c0,-1 -0.292892,-1.292892 -1,-2c-0.707108,-0.707108 -0.292892,-1.292892 -1,-2c-0.707108,-0.707108 -2.292892,0.707108 -3,0c-0.707108,-0.707108 -1,-1 -2,-1c-1,0 -2,0 -3,0c-1,0 -0.693436,1.458801 -2,2c-0.923882,0.382683 -2,1 -2,2c0,1 0,2 0,3c0,1 0,2 0,3c0,1 0,2 0,3c0,1 0,2 0,3c0,1 0,2 0,3c0,1 0.076118,1.617317 1,2c1.306564,0.541199 0.292892,2.292892 1,3c0.707108,0.707108 1.292892,0.292892 2,1c0.707108,0.707108 1.458801,0.693436 2,2c0.382683,0.923882 0.693436,1.458801 2,2c0.923882,0.382683 1.292892,0.292892 2,1c0.707108,0.707108 2,0 3,0c1,0 1,1 2,1c1,0 2,0 3,0l1,0l1,0" id="svg_12" stroke-width="1.5" stroke="#000" fill="none"/>
  <path d="m139,68.5c0,0 0,2 0,3c0,3 0,6 0,9c0,2 -0.459503,4.053505 0,6c0.513748,2.176254 1,5 1,6c0,2 0,3 0,4c0,2 0,3 0,5c0,3 -0.459503,4.053505 0,6c0.513748,2.176254 1,3 1,4c0,1 0.458801,1.693436 1,3c0.38269,0.923882 0,2 0,4c0,1 0,2 0,3c0,1 0,2 0,3c0,1 -0.459503,2.053505 0,4c0.513748,2.176254 0,5 1,5c2,0 0,-3 0,-5c0,-1 0,-4 0,-6c0,-1 0,-2 0,-5c0,-1 0,-3 0,-4c0,-1 0,-2 0,-3c0,-1 -1,-2 -1,-3c0,-1 0,-2 0,-3c0,-1 0.292892,-1.292892 1,-2c0.707108,-0.707108 2,-1 3,-1c1,0 2,0 3,0c1,0 1.292892,0.292892 2,1c0.707108,0.707108 1.292892,0.292892 2,1c0.707108,0.707108 2.458801,0.693436 3,2c0.38269,0.923882 1.292892,1.292892 2,2c0.707108,0.707108 -0.38269,3.076118 0,4c0.541199,1.306564 1,2 1,3c0,1 0,2 0,3c0,1 0.707108,2.292892 0,3c-0.707108,0.707108 -1.458801,0.693436 -2,2c-0.38269,0.923882 -0.61731,1.076118 -1,2c-0.541199,1.306564 -1,2 -2,3c-1,1 -2.458801,1.693436 -3,3c-0.38269,0.923874 -0.292892,1.292892 -1,2c-1.414215,1.414215 -2.693436,0.458801 -4,1c-0.923874,0.38269 -1,1 -2,1l-1,0" id="svg_13" stroke-width="1.5" stroke="#000" fill="none"/>
  <path d="m170,70.5c0,0 1,0 4,0c2,0 4.823746,-0.486259 7,-1c1.946503,-0.459503 3,0 4,0c1,0 1,-1 3,-1c2,0 3,0 3,1c0,2 1,4 1,5c0,2 1,3 1,4c0,3 0,7 0,8c0,3 0,5 0,7c0,2 0,5 0,8c0,3 0,6 0,7c0,1 0,2 0,3c0,1 0,3 0,4c0,2 0,3 0,4c0,1 -0.61731,2.076118 -1,3c-0.541199,1.306564 -1.458801,1.693436 -2,3c-0.38269,0.923882 -1.292892,0.292892 -2,1c-0.707108,0.707108 -0.61731,1.076118 -1,2c-0.541199,1.306564 -2.076126,0.61731 -3,1c-1.306564,0.541199 -2.076126,0.61731 -3,1c-1.306564,0.541199 -2,1 -3,1c-2,0 -3,0 -4,0c-1,0 -2,0 -3,0l-1,-1l-1,-1l-1,-1" id="svg_14" stroke-width="1.5" stroke="#000" fill="none"/>
  <path d="m204,73.5c0,0 0,-1 1,-2c1,-1 1,-2 2,-2c1,0 2,0 3,0c1,0 2,0 3,0c1,0 2,0 3,0c2,0 2.292892,0.292892 3,1c0.707108,0.707108 2,1 3,2c1,1 2.61731,3.076118 3,4c0.541199,1.306564 1,2 1,3c0,1 0,2 0,3c0,1 0,2 0,3c0,1 -0.692551,2.186005 -2,4c-0.826904,1.14727 -1.149353,1.474266 -2,2c-1.902115,1.175568 -2,2 -3,3c-1,1 -2,2 -3,3c-1,1 -2.149353,1.474266 -3,2c-1.902115,1.175568 -1.292892,3.292892 -2,4c-0.707108,0.707108 -1,1 -1,2c0,1 -0.61731,1.076118 -1,2c-0.541199,1.306564 -0.61731,2.076118 -1,3c-0.541199,1.306564 -0.234634,2.152245 -1,4c-0.541199,1.306564 -1,2 -1,3c0,1 0,2 0,3c0,1 0,2 0,3c0,1 0,2 0,3c0,1 0,2 0,3c0,1 1,1 2,1c1,0 2,0 3,0c2,0 3,0 4,0c1,0 2,0 3,0c1,0 2,0 3,0c1,0 2,0 3,0c1,0 2,-1 3,-1l1,0" id="svg_15" stroke-width="1.5" stroke="#000" fill="none"/>
  <path d="m240,69.5c0,0 1,0 3,0c4,0 10,0 15,0c4,0 6,1 6,0c0,-1 -1.823761,-0.486259 -4,-1c-0.973236,-0.229752 -2,0 -3,0c-1,0 -2,0 -3,0c-1,0 -2.292892,-0.707108 -3,0c-0.707108,0.707108 -1,1 -2,1c-1,0 -2,0 -3,0c-1,0 -1.292892,0.292892 -2,1c-0.707108,0.707108 -2,0 -3,0c-1,0 -2.707108,0.292892 -2,1c0.707108,0.707108 2,1 2,2c0,1 1,3 1,4c0,1 0.770248,2.026749 1,3c0.513748,2.176254 1,3 1,5c0,1 0,2 0,4c0,1 0,4 0,5c0,1 0,2 0,3c0,2 -0.458801,3.693436 -1,5c-0.38269,0.923882 0.160187,2.012909 0,3c-0.506546,3.121445 0.148056,4.228363 -1,7c-0.541199,1.306564 -1,2 -1,4c0,1 -1,1 -1,2c0,2 0,3 0,4c0,1 0,2 0,3c0,2 0,3 1,3c1,0 2,0 3,0c1,0 2,0 3,0c2,0 3,0 4,0c1,0 2,0 3,0c1,0 2,0 3,0c1,0 2,0 3,0l1,0l1,-1l1,0" id="svg_16" stroke-width="1.5" stroke="#000" fill="none"/>
  <path d="m244,96.5c0,0 1,0 5,0c6,0 8.823761,-0.486259 11,-1c0.973236,-0.229752 2,0 3,0c1,0 2,0 3,0l1,0l1,0l1,0" id="svg_18" stroke-width="1.5" stroke="#000" fill="none"/>
  <path d="m306,63.5c0,0 -1,0 -2,0c-2,0 -4,0 -6,0c-2,0 -4.026764,-0.229752 -5,0c-2.176239,0.513741 -3,1 -4,1c-2,0 -3,0 -4,0c-1,0 -1.292908,0.292892 -2,1c-0.707092,0.707108 -2,0 -3,0c-1,0 -2.292908,-0.707108 -3,0c-0.707092,0.707108 -0.38269,2.076118 0,3c0.541199,1.306564 1.458801,1.693436 2,3c0.765381,1.847755 1,4 1,5c0,2 0,3 0,5c0,2 0,4 0,5c0,2 0,3 0,5c0,1 0,3 0,4c0,1 0,3 0,4c0,1 0,2 0,4c0,1 0,2 0,3c0,1 1,2 1,3c0,1 0,2 0,3c0,2 0,3 0,4c0,1 0,2 0,3c0,1 0,2 0,3c0,1 -0.707092,2.292892 0,3c0.707092,0.707108 2,0 3,0c1,0 3,0 4,0c2,0 3.292908,0.707108 4,0c0.707092,-0.707108 1,-1 2,-1c1,0 2,0 3,0c1,0 2,0 3,0c1,0 2,0 3,0c1,0 2,0 3,0l1,0l1,0" id="svg_19" stroke-width="1.5" stroke="#000" fill="none"/>
  <path d="m282,94.5c0,0 1,0 2,0c2,0 3,0 5,0c2,0 3,0 5,0c1,0 2,0 3,0c1,0 2,0 3,0c1,0 3,0 5,0l1,0l1,0l1,0" id="svg_21" stroke-width="1.5" stroke="#000" fill="none"/>
  <polyline stroke-linecap="round" id="svg_22" points="718,76.5 718,76.5 " stroke-width="1.5" stroke="#000" fill="none"/>
 </g>
</svg>