<svg xmlns="http://www.w3.org/2000/svg" width="400" height="200"><path fill="#fff" d="M-1-1h402v202H-1z"/><g><path fill="none" stroke="#000" stroke-width="1.5" d="M40 74.5s-.16 2.01 0 3c.5 3.12 1.19 5.94 2 9 1.3 4.93.36 8.05 1 12 .5 3.12 1.85 9.04 3 13 .88 3.04 2.23 5.15 3 7 1.08 2.61 2.35 3.7 4 6 1.3 1.81 1.46 2.7 2 4 .38.92 1 1 1-1v-9c0-2 1.49-4.82 2-7 .46-1.95 1.1-3.9 2-5 2.29-2.79 3.19-4.88 5-8 1.12-1.93 2.42-4.76 4-8 1.39-2.84 2-5 2-7v-4c0-1-.92-2.62 0-3 1.3-.54 2 2 2 5 0 2 .22 4.9 1 7 1.43 3.87.31 6.08 1 9 1.03 4.35 2.26 7.8 3 9 1.66 2.69.54 5.05 1 7 .51 2.18 1.5 4.88 2 8 .16.99 1 2 1 4 0 1 1 2 1 3s.08 1.62 1 2c1.3.54 1.49-3.82 2-6 .46-1.95-.3-3.19 1-5 .83-1.15 2-2 2-3s-.21-3.08 1-6c.86-2.07 1-3 2-5s2.49-3.82 3-6c.46-1.95.54-3.05 1-5 .51-2.18.88-4 1-5 .5-4.1 1-5 1-6v-4c0-1-1-2-1-3h-1v-2M111 120.5s-.53-1.15 0-2c1.18-1.9 5.21-2.71 8-5 2.19-1.8 4-4 4-5v-3-3-3c0-1-.3-1.3-1-2s-.3-1.3-1-2-2.3.7-3 0c-.7-.7-1-1-2-1h-3c-1 0-.7 1.46-2 2-.92.38-2 1-2 2v15c0 1 .08 1.62 1 2 1.3.54.3 2.3 1 3 .7.7 1.3.3 2 1s1.46.7 2 2c.38.92.7 1.46 2 2 .92.38 1.3.3 2 1s2 0 3 0 1 1 2 1h5M139 68.5v12c0 2-.46 4.05 0 6 .51 2.18 1 5 1 6v9c0 3-.46 4.05 0 6 .51 2.18 1 3 1 4s.46 1.7 1 3c.38.92 0 2 0 4v6c0 1-.46 2.05 0 4 .51 2.18 0 5 1 5 2 0 0-3 0-5v-6-5-4-3c0-1-1-2-1-3v-3c0-1 .3-1.3 1-2s2-1 3-1h3c1 0 1.3.3 2 1s1.3.3 2 1 2.46.7 3 2c.38.92 1.3 1.3 2 2s-.38 3.08 0 4c.54 1.3 1 2 1 3v3c0 1 .7 2.3 0 3-.7.7-1.46.7-2 2-.38.92-.62 1.08-1 2-.54 1.3-1 2-2 3s-2.46 1.7-3 3c-.38.92-.3 1.3-1 2-1.41 1.41-2.7.46-4 1-.92.38-1 1-2 1h-1M170 70.5h4c2 0 4.82-.49 7-1 1.95-.46 3 0 4 0s1-1 3-1 3 0 3 1c0 2 1 4 1 5 0 2 1 3 1 4v41c0 1-.62 2.08-1 3-.54 1.3-1.46 1.7-2 3-.38.92-1.3.3-2 1s-.62 1.08-1 2c-.54 1.3-2.08.62-3 1-1.3.54-2.08.62-3 1-1.3.54-2 1-3 1h-7l-1-1-1-1-1-1M204 73.5s0-1 1-2 1-2 2-2h9c2 0 2.3.3 3 1 .7.7 2 1 3 2s2.62 3.08 3 4c.54 1.3 1 2 1 3v6c0 1-.7 2.19-2 4a5.86 5.86 0 0 1-2 2c-1.9 1.18-2 2-3 3l-3 3c-1 1-2.15 1.47-3 2-1.9 1.18-1.3 3.3-2 4-.7.7-1 1-1 2s-.62 1.08-1 2c-.54 1.3-.62 2.08-1 3-.54 1.3-.23 2.15-1 4-.54 1.3-1 2-1 3v12c0 1 1 1 2 1h16c1 0 2-1 3-1h1M240 69.5h18c4 0 6 1 6 0s-1.82-.49-4-1c-.97-.23-2 0-3 0h-3c-1 0-2.3-.7-3 0-.7.7-1 1-2 1h-3c-1 0-1.3.3-2 1s-2 0-3 0-2.7.3-2 1c.7.7 2 1 2 2s1 3 1 4 .77 2.03 1 3c.51 2.18 1 3 1 5v12c0 2-.46 3.7-1 5-.38.92.16 2.01 0 3-.5 3.12.15 4.23-1 7-.54 1.3-1 2-1 4 0 1-1 1-1 2v7c0 2 0 3 1 3h20l1-1h1"/><path fill="none" stroke="#000" stroke-width="1.5" d="M244 96.5h5c6 0 8.82-.49 11-1 .97-.23 2 0 3 0h6M306 63.5h-8c-2 0-4.03-.23-5 0-2.18.51-3 1-4 1h-4c-1 0-1.3.3-2 1s-2 0-3 0-2.3-.7-3 0c-.7.7-.38 2.08 0 3 .54 1.3 1.46 1.7 2 3 .77 1.85 1 4 1 5v30c0 1 1 2 1 3v13c0 1-.7 2.3 0 3 .7.7 2 0 3 0h4c2 0 3.3.7 4 0 .7-.7 1-1 2-1h14M282 94.5h26"/><path fill="none" stroke="#000" stroke-linecap="round" stroke-width="1.5" d="M718 76.5h0"/></g></svg>